<svg width="1440" height="454" viewBox="0 0 1440 454" fill="none" xmlns="http://www.w3.org/2000/svg">
<path d="M212 368.5L-6.06274 77V420.5H200.266L212 368.5Z" fill="white"/>
<path d="M187.554 357.988L-53 44V414H174.609L187.554 357.988Z" fill="#121212"/>
<path d="M1260 129L1453.38 420.5L1453.38 77.0002L1270.41 77.0002L1260 129Z" fill="white"/>
<path d="M1281.68 139.512L1495 453.5L1495 83.5005L1293.16 83.5004L1281.68 139.512Z" fill="#121212"/>
<mask id="path-5-inside-1_184_121" fill="white">
<path d="M276 11C276 4.92487 280.925 0 287 0H289C295.075 0 300 4.92487 300 11C300 17.0751 295.075 22 289 22H287C280.925 22 276 17.0751 276 11Z"/>
</mask>
<path d="M272 11C272 3.8203 277.82 -2 285 -2H289C296.18 -2 302 3.8203 302 11H298C298 6.02944 293.971 2 289 2H287C283.134 2 280 6.02944 280 11H272ZM302 11C302 18.1797 296.18 24 289 24H285C277.82 24 272 18.1797 272 11H280C280 15.9706 283.134 20 287 20H289C293.971 20 298 15.9706 298 11H302ZM285 24C277.82 24 272 18.1797 272 11C272 3.8203 277.82 -2 285 -2L287 2C283.134 2 280 6.02944 280 11C280 15.9706 283.134 20 287 20L285 24ZM289 -2C296.18 -2 302 3.8203 302 11C302 18.1797 296.18 24 289 24V20C293.971 20 298 15.9706 298 11C298 6.02944 293.971 2 289 2V-2Z" fill="white" mask="url(#path-5-inside-1_184_121)"/>
<mask id="path-7-inside-2_184_121" fill="white">
<path d="M311 11C311 4.92487 315.925 0 322 0H324C330.075 0 335 4.92487 335 11C335 17.0751 330.075 22 324 22H322C315.925 22 311 17.0751 311 11Z"/>
</mask>
<path d="M309 11C309 3.8203 314.82 -2 322 -2H326C333.18 -2 339 3.8203 339 11H331C331 6.02944 327.866 2 324 2H322C317.029 2 313 6.02944 313 11H309ZM339 11C339 18.1797 333.18 24 326 24H322C314.82 24 309 18.1797 309 11H313C313 15.9706 317.029 20 322 20H324C327.866 20 331 15.9706 331 11H339ZM322 24C314.82 24 309 18.1797 309 11C309 3.8203 314.82 -2 322 -2V2C317.029 2 313 6.02944 313 11C313 15.9706 317.029 20 322 20V24ZM326 -2C333.18 -2 339 3.8203 339 11C339 18.1797 333.18 24 326 24L324 20C327.866 20 331 15.9706 331 11C331 6.02944 327.866 2 324 2L326 -2Z" fill="white" mask="url(#path-7-inside-2_184_121)"/>
<path d="M3.5 37L48.5 84.5H227L270 37H1449" stroke="white" stroke-width="2"/>
</svg>
