<svg width="1440" height="522" viewBox="0 0 1440 522" fill="none" xmlns="http://www.w3.org/2000/svg">
<path d="M-40 37C-40 37 -39.8429 37.6081 -39.5451 38.7221C-37.2929 46.9659 -26.8458 82 -11.9545 82H190.22C224.631 82 210.37 37 234.513 37C258.655 37 1168.51 35.5 1189.92 37C1211.34 38.5 1201.14 0 1223.07 0H1451L1451 41H1224.77C1203.01 41 1213.13 79.5 1191.87 78C1170.61 76.5 267.56 78 243.597 78C219.634 78 233.789 123 199.635 123H-1.02953C-16.3718 123 -36.3017 50.8556 -39.5451 38.7221C-39.8454 37.6229 -40 37 -40 37Z" fill="white"/>
<path d="M-30 103C-30 103 -18.8014 148 -1.87927 148H200.837C235.341 148 221.041 103 245.249 103C269.457 103 1181.75 101.5 1203.22 103C1224.7 104.5 1214.47 66 1236.46 66H1465" stroke="white" stroke-width="2"/>
<path d="M1164.43 492.862C1155.52 493.172 486 492.862 486 492.862C486 492.862 490.982 486.485 496.462 486.182C501.942 485.878 1182 486.047 1182 486.047C1182 486.047 1173.35 492.552 1164.43 492.862Z" fill="white"/>
<path d="M1451 442L1238.5 442C1212.49 442 1183.91 493.262 1167.4 493.609C1150.9 493.956 529.685 486.318 501.676 486.318C473.666 486.318 485.17 520.691 452.159 520.691C419.147 520.691 301.607 521.386 239.586 520.691C177.565 519.997 221.523 477.587 153.5 477.587H-13M486 492.862C486 492.862 1155.52 493.172 1164.43 492.862C1173.35 492.552 1182 486.047 1182 486.047C1182 486.047 501.942 485.878 496.462 486.182C490.982 486.485 486 492.862 486 492.862Z" stroke="white"/>
</svg>
