<svg width="1440" height="522" viewBox="0 0 1440 522" fill="none" xmlns="http://www.w3.org/2000/svg">
<path d="M-40 37C-40 37 -39.8429 37.6081 -39.5451 38.7221C-37.2929 46.9659 -26.8458 82 -11.9545 82H190.22L234.513 37H1189.92L1223.07 0H1451L1451 41H1224.77L1191.87 78H243.597L199.635 123H-1.02953C-16.3718 123 -36.3017 50.8555 -39.5451 38.7221C-39.8454 37.6229 -40 37 -40 37Z" fill="white"/>
<path d="M-30 103C-30 103 -18.8014 148 -1.87927 148H200.837L245.249 103H1203.22L1236.46 66H1465" stroke="white" stroke-width="2"/>
<path d="M1167.4 493.609L486 492.862C486 492.862 490.982 486.485 496.462 486.182C501.942 485.878 1177.5 486.28 1177.5 486.28L1167.4 493.609Z" fill="white"/>
<path d="M1167.4 493.609C1167.4 493.609 529.685 486.318 501.676 486.318C473.666 486.318 485.17 520.691 452.159 520.691C419.147 520.691 301.607 521.386 239.586 520.691C177.565 519.997 221.523 477.587 153.5 477.587H-13M1167.4 493.609L1238.5 442L1451 442M1167.4 493.609L486 492.862C486 492.862 490.982 486.485 496.462 486.182C501.942 485.878 1177.5 486.28 1177.5 486.28L1167.4 493.609Z" stroke="white"/>
</svg>
